<mxfile host="app.diagrams.net" modified="2024-03-14T11:57:56.797Z" agent="Mozilla/5.0 (Windows NT 10.0; Win64; x64) AppleWebKit/537.36 (KHTML, like Gecko) Chrome/122.0.0.0 Safari/537.36" etag="wlSJ2RpQPDURup0io37V" version="24.0.6" type="device">
  <diagram name="Strona-1" id="dgOluTsAnsniR9_BmUqv">
    <mxGraphModel dx="1050" dy="597" grid="1" gridSize="10" guides="1" tooltips="1" connect="1" arrows="1" fold="1" page="1" pageScale="1" pageWidth="827" pageHeight="1169" math="0" shadow="0">
      <root>
        <mxCell id="0" />
        <mxCell id="1" parent="0" />
        <mxCell id="IfKDbo0O8qZx_4Lj-_qt-3" value="Kontener" style="rounded=1;arcSize=10;whiteSpace=wrap;html=1;align=center;" vertex="1" parent="1">
          <mxGeometry x="480" y="270" width="100" height="40" as="geometry" />
        </mxCell>
        <mxCell id="IfKDbo0O8qZx_4Lj-_qt-9" style="edgeStyle=orthogonalEdgeStyle;rounded=0;orthogonalLoop=1;jettySize=auto;html=1;endArrow=ERzeroToMany;endFill=0;startArrow=ERmandOne;startFill=0;" edge="1" parent="1" source="IfKDbo0O8qZx_4Lj-_qt-4" target="IfKDbo0O8qZx_4Lj-_qt-7">
          <mxGeometry relative="1" as="geometry" />
        </mxCell>
        <mxCell id="IfKDbo0O8qZx_4Lj-_qt-10" value="zawiera" style="edgeLabel;html=1;align=center;verticalAlign=middle;resizable=0;points=[];" vertex="1" connectable="0" parent="IfKDbo0O8qZx_4Lj-_qt-9">
          <mxGeometry x="-0.2213" relative="1" as="geometry">
            <mxPoint x="12" y="-10" as="offset" />
          </mxGeometry>
        </mxCell>
        <mxCell id="IfKDbo0O8qZx_4Lj-_qt-4" value="Zamównie" style="rounded=1;arcSize=10;whiteSpace=wrap;html=1;align=center;" vertex="1" parent="1">
          <mxGeometry x="230" y="170" width="100" height="40" as="geometry" />
        </mxCell>
        <mxCell id="IfKDbo0O8qZx_4Lj-_qt-14" style="edgeStyle=orthogonalEdgeStyle;rounded=0;orthogonalLoop=1;jettySize=auto;html=1;entryX=0.5;entryY=1;entryDx=0;entryDy=0;endArrow=blockThin;endFill=0;" edge="1" parent="1" source="IfKDbo0O8qZx_4Lj-_qt-5" target="IfKDbo0O8qZx_4Lj-_qt-3">
          <mxGeometry relative="1" as="geometry" />
        </mxCell>
        <mxCell id="IfKDbo0O8qZx_4Lj-_qt-15" style="edgeStyle=orthogonalEdgeStyle;rounded=0;orthogonalLoop=1;jettySize=auto;html=1;entryX=0.5;entryY=0;entryDx=0;entryDy=0;startArrow=ERoneToMany;startFill=0;endArrow=ERoneToMany;endFill=0;" edge="1" parent="1" source="IfKDbo0O8qZx_4Lj-_qt-5" target="IfKDbo0O8qZx_4Lj-_qt-8">
          <mxGeometry relative="1" as="geometry" />
        </mxCell>
        <mxCell id="IfKDbo0O8qZx_4Lj-_qt-16" value="opisuje" style="edgeLabel;html=1;align=center;verticalAlign=middle;resizable=0;points=[];" vertex="1" connectable="0" parent="IfKDbo0O8qZx_4Lj-_qt-15">
          <mxGeometry x="-0.024" y="-4" relative="1" as="geometry">
            <mxPoint x="24" as="offset" />
          </mxGeometry>
        </mxCell>
        <mxCell id="IfKDbo0O8qZx_4Lj-_qt-5" value="Kubek" style="rounded=1;arcSize=10;whiteSpace=wrap;html=1;align=center;" vertex="1" parent="1">
          <mxGeometry x="550" y="390" width="100" height="40" as="geometry" />
        </mxCell>
        <mxCell id="IfKDbo0O8qZx_4Lj-_qt-13" style="edgeStyle=orthogonalEdgeStyle;rounded=0;orthogonalLoop=1;jettySize=auto;html=1;entryX=0.5;entryY=1;entryDx=0;entryDy=0;endArrow=block;endFill=0;" edge="1" parent="1" source="IfKDbo0O8qZx_4Lj-_qt-6" target="IfKDbo0O8qZx_4Lj-_qt-3">
          <mxGeometry relative="1" as="geometry" />
        </mxCell>
        <mxCell id="IfKDbo0O8qZx_4Lj-_qt-6" value="Rożek" style="rounded=1;arcSize=10;whiteSpace=wrap;html=1;align=center;" vertex="1" parent="1">
          <mxGeometry x="420" y="390" width="100" height="40" as="geometry" />
        </mxCell>
        <mxCell id="IfKDbo0O8qZx_4Lj-_qt-11" style="edgeStyle=orthogonalEdgeStyle;rounded=0;orthogonalLoop=1;jettySize=auto;html=1;entryX=0.5;entryY=0;entryDx=0;entryDy=0;startArrow=ERoneToMany;startFill=0;endArrow=ERmandOne;endFill=0;" edge="1" parent="1" source="IfKDbo0O8qZx_4Lj-_qt-7" target="IfKDbo0O8qZx_4Lj-_qt-3">
          <mxGeometry relative="1" as="geometry" />
        </mxCell>
        <mxCell id="IfKDbo0O8qZx_4Lj-_qt-12" value="wskazuje" style="edgeLabel;html=1;align=center;verticalAlign=middle;resizable=0;points=[];" vertex="1" connectable="0" parent="IfKDbo0O8qZx_4Lj-_qt-11">
          <mxGeometry x="-0.02" relative="1" as="geometry">
            <mxPoint x="30" as="offset" />
          </mxGeometry>
        </mxCell>
        <mxCell id="IfKDbo0O8qZx_4Lj-_qt-7" value="Pozycja" style="rounded=1;arcSize=10;whiteSpace=wrap;html=1;align=center;" vertex="1" parent="1">
          <mxGeometry x="480" y="170" width="100" height="40" as="geometry" />
        </mxCell>
        <mxCell id="IfKDbo0O8qZx_4Lj-_qt-8" value="Kolor" style="rounded=1;arcSize=10;whiteSpace=wrap;html=1;align=center;" vertex="1" parent="1">
          <mxGeometry x="550" y="480" width="100" height="40" as="geometry" />
        </mxCell>
      </root>
    </mxGraphModel>
  </diagram>
</mxfile>
